# xmcd
#
# Track frame offsets: 
#        150
#        18241
#        37817
#        52866
#        68617
#        83559
#
# Disc length: 1328 seconds
#
# Revision: 0
# Processed by: cddbd v1.5.2PL0 Copyright (c) Steve Scherf et al.
# Submitted via: ExactAudioCopy v1.0b3
#
DISCID=34052e06
DTITLE=Natalie Stovall - Standing My Ground
DYEAR=2009
DGENRE=Country
TTITLE0=Standing My Ground
TTITLE1=Even Alaska
TTITLE2=Sound Of Goodbye
TTITLE3=Whatever It Takes
TTITLE4=Step By Step
TTITLE5=Devil Went Down To Georgia
EXTD=
EXTT0=
EXTT1=
EXTT2=
EXTT3=
EXTT4=
EXTT5=
PLAYORDER=
